<svg xmlns="http://www.w3.org/2000/svg" width="16" height="16" viewBox="0 0 16 16" fill="none">
  <path d="M8.25946 6.73772V9.69897H12.3714C11.9887 11.5808 10.3867 12.6619 8.25946 12.6619C5.78178 12.6278 3.79112 10.6096 3.79112 8.13168C3.79112 5.65376 5.78178 3.63552 8.25946 3.60142C9.28934 3.60018 10.2875 3.95758 11.0826 4.61224L13.3136 2.38122C10.7544 0.131376 7.01696 -0.157998 4.14198 1.6711C1.26701 3.50021 -0.0545117 7.0082 0.899015 10.2796C1.85254 13.5509 4.85196 15.7995 8.25946 15.7974C12.0925 15.7974 15.5781 13.0095 15.5781 8.13125C15.5722 7.66157 15.5146 7.19396 15.4065 6.73686L8.25946 6.73772Z" fill="#2E3A59"/>
</svg>