<svg xmlns="http://www.w3.org/2000/svg" width="58" height="52" viewBox="0 0 58 52" fill="none">
  <path d="M34.8951 36.1695C34.7347 36.1742 34.578 36.1206 34.4542 36.0186C34.3983 35.9759 34.3531 35.9208 34.3222 35.8576C34.2912 35.7945 34.2754 35.725 34.276 35.6547V15.992L24.7384 35.8193C24.6834 35.9248 24.5985 36.0118 24.4943 36.0693C24.39 36.1268 24.2712 36.1522 24.1525 36.1424H23.9895C23.8708 36.1522 23.752 36.1268 23.6477 36.0693C23.5435 36.0118 23.4586 35.9248 23.4036 35.8193L13.9324 16.5038V35.6562C13.932 35.7284 13.9157 35.7997 13.8846 35.8649C13.8536 35.9302 13.8086 35.9878 13.7527 36.0337C13.6305 36.1389 13.4746 36.1967 13.3134 36.1967C13.1521 36.1967 12.9962 36.1389 12.874 36.0337C12.8182 35.9878 12.7732 35.9302 12.7421 35.8649C12.7111 35.7997 12.6947 35.7284 12.6943 35.6562V13.8344C12.6966 13.7874 12.7079 13.7413 12.7276 13.6985C12.7621 13.573 12.8398 13.4637 12.9469 13.3897C13.054 13.3157 13.1837 13.2818 13.3134 13.2939C13.4322 13.2842 13.5512 13.3098 13.6554 13.3676C13.7596 13.4253 13.8445 13.5127 13.8992 13.6185L24.0544 34.3894L34.048 13.6442C34.1779 13.3754 34.3862 13.2969 34.7275 13.2969H34.8951C35.0605 13.2951 35.2211 13.3524 35.348 13.4585C35.4077 13.5022 35.4565 13.5592 35.4906 13.625C35.5246 13.6907 35.543 13.7634 35.5443 13.8375V35.1444H37.2368V13.8344C37.2371 13.7621 37.2532 13.6907 37.284 13.6253C37.3148 13.5598 37.3595 13.5019 37.415 13.4555L37.5947 13.2939H37.8544C38.0165 13.29 38.174 13.3477 38.2952 13.4555C38.3505 13.5021 38.395 13.56 38.4258 13.6255C38.4565 13.6909 38.4728 13.7622 38.4734 13.8344V35.6562C38.474 35.7265 38.4582 35.796 38.4273 35.8592C38.3963 35.9223 38.3511 35.9774 38.2952 36.0201C38.2646 36.0463 38.2312 36.0691 38.1956 36.088C38.0891 36.1398 37.9727 36.1676 37.8544 36.1695C37.7463 36.178 37.6378 36.178 37.5297 36.1695H34.8951Z" fill="#1A3444"/>
  <path d="M44.7571 13.2062C44.9169 13.2025 45.0727 13.256 45.1964 13.3572C45.2523 13.3999 45.2975 13.455 45.3285 13.5181C45.3594 13.5813 45.3752 13.6508 45.3746 13.7211C45.3743 13.7934 45.3582 13.8648 45.3274 13.9303C45.2966 13.9957 45.2519 14.0537 45.1964 14.1001C45.0759 14.208 44.9188 14.2658 44.7571 14.2616H38.4746V35.2484C38.4768 35.323 38.4617 35.3972 38.4306 35.465C38.3994 35.5328 38.353 35.5925 38.2949 35.6395C38.1686 35.7355 38.0143 35.7875 37.8556 35.7875C37.6969 35.7875 37.5426 35.7355 37.4162 35.6395C37.3582 35.5925 37.3118 35.5328 37.2806 35.465C37.2494 35.3972 37.2343 35.323 37.2365 35.2484V13.7724C37.24 13.6878 37.266 13.6056 37.3119 13.5345C37.3579 13.4633 37.422 13.4058 37.4977 13.3678C37.6247 13.2618 37.7853 13.2046 37.9507 13.2062H44.7571ZM40.0101 36.2208C39.8466 36.2221 39.6872 36.169 39.5572 36.0698C39.4976 36.0295 39.4487 35.9754 39.4147 35.912C39.3808 35.8486 39.3628 35.7778 39.3624 35.7059V24.1043C39.3636 24.0306 39.3818 23.9582 39.4156 23.8928C39.4494 23.8273 39.4978 23.7705 39.5572 23.7268C39.6838 23.6203 39.8446 23.5629 40.0101 23.5653C40.1719 23.5603 40.3294 23.6182 40.4495 23.7268C40.5051 23.7728 40.5501 23.8305 40.5811 23.8957C40.6121 23.9609 40.6285 24.0321 40.6292 24.1043V35.1427H44.7631C44.9249 35.1378 45.0824 35.1957 45.2025 35.3043C45.2579 35.3504 45.3026 35.4081 45.3334 35.4733C45.3642 35.5385 45.3803 35.6096 45.3806 35.6818C45.3812 35.7521 45.3654 35.8216 45.3345 35.8847C45.3036 35.9479 45.2584 36.003 45.2025 36.0456C45.0788 36.1468 44.9229 36.2004 44.7631 36.1966L40.0101 36.2208ZM46.4873 13.2606C48.4099 13.2458 50.2983 13.7688 51.9394 14.7704C53.5905 15.7708 54.952 17.1848 55.8891 18.8727C56.8649 20.5952 57.37 22.5443 57.3537 24.524C57.3537 26.5653 56.866 28.7984 55.8891 30.5241C54.9512 32.2111 53.5892 33.624 51.9379 34.6234C50.2968 35.625 48.4084 36.148 46.4858 36.1332C46.326 36.137 46.1702 36.0834 46.0465 35.9822C45.9908 35.9363 45.946 35.8787 45.9152 35.8134C45.8844 35.7482 45.8685 35.6769 45.8685 35.6048C45.8685 35.5326 45.8844 35.4613 45.9152 35.3961C45.946 35.3308 45.9908 35.2732 46.0465 35.2273C46.1702 35.1261 46.326 35.0725 46.4858 35.0763C48.1879 35.0871 49.8582 34.616 51.3037 33.7175C52.7807 32.81 53.9896 31.526 54.8066 29.9972C55.6627 28.4239 56.0915 26.366 56.0915 24.5225C56.1045 22.7326 55.6624 20.9687 54.8066 19.3966C53.9907 17.8676 52.7828 16.5831 51.3068 15.6748C49.8612 14.7762 48.1909 14.3051 46.4889 14.316C46.3264 14.3195 46.169 14.26 46.0495 14.1499C45.9939 14.1039 45.9491 14.0463 45.9183 13.9811C45.8875 13.9158 45.8714 13.8446 45.8713 13.7724C45.8707 13.7021 45.8865 13.6326 45.9175 13.5695C45.9484 13.5063 45.9936 13.4512 46.0495 13.4086C46.1716 13.3101 46.3245 13.2578 46.4813 13.2606H46.4873Z" fill="#1A3444"/>
  <path fill-rule="evenodd" clip-rule="evenodd" d="M41.7861 6.77156C41.9745 6.68229 42.1527 6.57295 42.3176 6.44544C42.3176 6.44544 42.1243 6.57226 41.7861 6.77156ZM27.0757 5.07148C15.6779 0.403047 8.39746 -2.80084 3.59465 3.56164C-0.395861 8.84609 -1.03603 17.1578 1.53523 28.0045C3.84529 37.755 8.66924 44.35 12.3804 47.9148C16.004 51.3874 20.7691 52.5953 23.9141 50.3864C25.4481 49.3068 26.3525 48.3103 27.7597 45.7179C28.541 44.2396 29.1402 42.672 29.5443 41.0495C29.5443 41.0495 24.7385 51.0734 19.2457 48.8765C13.7529 46.6797 7.53383 39.5986 4.9671 26.2183C3.17039 16.8558 4.28163 5.07148 9.63704 3.69903C14.9925 2.32659 22.1325 6.03929 27.0757 7.4057C32.019 8.7721 36.0019 9.19184 38.3361 8.36747C39.5327 7.94246 40.6875 7.40824 41.7861 6.77156C40.3925 7.47062 36.1046 8.77059 27.0757 5.07148Z" fill="#38BCEA"/>
  <path fill-rule="evenodd" clip-rule="evenodd" d="M49.3214 3.01965C45.8986 0.683922 42.8215 0.782061 40.67 0.952674C36.6418 1.27125 33.3926 3.14949 33.3926 3.14949C33.3926 3.14949 40.3877 1.12329 45.4713 3.56168C49.9646 5.7117 50.2771 9.46667 50.2771 9.46667C50.2771 9.46667 51.2721 9.68409 52.782 10.5991C54.2209 11.4748 54.5606 11.9277 54.5606 11.9277C54.5606 11.9277 53.4478 5.81135 49.3214 3.01965Z" fill="#38BCEA"/>
</svg>