<svg xmlns="http://www.w3.org/2000/svg" width="45" height="46" viewBox="0 0 45 46" fill="none">
  <path d="M22.6984 27.5005C15.242 27.5005 9.17578 33.5667 9.17578 41.0231C9.17578 41.3866 9.46995 41.6807 9.83339 41.6807H35.5635C35.9269 41.6807 36.2211 41.3866 36.2211 41.0231C36.2211 33.5667 30.1548 27.5005 22.6984 27.5005ZM10.5085 40.3655C10.8514 33.9389 16.1881 28.8157 22.6984 28.8157C29.2088 28.8157 34.5455 33.9389 34.8883 40.3655H10.5085Z" fill="#20A0CD"/>
  <path d="M22.4752 26.2981C26.7882 26.2981 30.2976 22.7878 30.2976 18.4726C30.2976 16.9482 29.8579 15.4778 29.0307 14.2086V4.50844C29.0307 4.145 28.7365 3.85083 28.373 3.85083H16.5782C16.2147 3.85083 15.9206 4.145 15.9206 4.50844V14.2042C15.0911 15.476 14.6514 16.9495 14.6514 18.4726C14.6509 22.7878 18.1608 26.2981 22.4752 26.2981ZM17.2353 5.16649H27.715V13.9114H17.2353V5.16649ZM16.8364 15.2262H28.1161C28.6839 16.2104 28.9824 17.3235 28.9824 18.4726C28.982 22.0627 26.0631 24.9829 22.4752 24.9829C18.8864 24.9829 15.9666 22.0622 15.9666 18.4726C15.9666 17.3252 16.2673 16.2117 16.8364 15.2262Z" fill="#20A0CD"/>
  <path d="M24.767 8.95385H23.1331V7.31728C23.1331 6.95384 22.8389 6.65967 22.4755 6.65967C22.112 6.65967 21.8179 6.95384 21.8179 7.31728V8.95385H20.1835C19.82 8.95385 19.5259 9.24802 19.5259 9.61146C19.5259 9.9749 19.82 10.2691 20.1835 10.2691H21.8179V11.9034C21.8179 12.2669 22.112 12.5611 22.4755 12.5611C22.8389 12.5611 23.1331 12.2669 23.1331 11.9034V10.2691H24.767C25.1305 10.2691 25.4246 9.9749 25.4246 9.61146C25.4246 9.24802 25.13 8.95385 24.767 8.95385Z" fill="#20A0CD"/>
</svg>